<svg width="25" height="42" viewBox="0 0 25 42" fill="none" xmlns="http://www.w3.org/2000/svg">
<path d="M1.41334 19.0953L1.78667 19.0673C1.92185 19.0543 2.05112 19.0117 2.16267 18.9437L2.16 18.946C2.51734 20.024 2.95467 21.158 3.50134 22.3457C4.20267 23.8997 4.89334 25.176 5.66667 26.408L5.56 26.2213C5.496 27.0707 5.41867 27.9433 5.31734 28.788C5.27294 29.2863 5.15737 29.7778 4.97334 30.251L4.98667 30.209C4.95467 30.2207 4.90934 35.0623 4.90934 35.0623C4.91032 36.5646 5.48898 38.0229 6.55218 39.2025C7.61538 40.3821 9.10126 41.2144 10.7707 41.5653L10.824 41.5747C10.8981 41.4062 11.0287 41.2613 11.1986 41.1589C11.3684 41.0564 11.5697 41.0013 11.776 41.0007H13.3067C13.5111 41.0031 13.7101 41.0581 13.879 41.159C14.0478 41.2598 14.179 41.402 14.256 41.5677L14.2587 41.5747C15.9422 41.2341 17.4451 40.4063 18.5239 39.2252C19.6027 38.0441 20.1942 36.5789 20.2027 35.067C20.2027 35.067 20.1093 30.244 20.0613 30.2113C19.9024 29.7603 19.7935 29.2969 19.736 28.8277L19.7333 28.7927C19.64 27.9433 19.5787 27.0917 19.4907 26.226C20.1493 25.1853 20.84 23.9113 21.448 22.5977L21.5493 22.3503C22.096 21.1627 22.52 20.031 22.8907 18.9507C23.0002 19.0187 23.1278 19.0613 23.2613 19.0743H23.264L23.64 19.1023C24.0933 19.1443 24.4933 18.8177 24.5307 18.3113L24.936 13.8057V13.801C24.9358 13.6197 24.8601 13.4446 24.7232 13.3085C24.5863 13.1724 24.3975 13.0846 24.192 13.0613H24.1413C24.4965 10.7151 24.2765 8.32967 23.496 6.06366L23.5307 6.18266C22.7785 4.72133 21.6346 3.44035 20.1959 2.44839C18.7572 1.45644 17.0663 0.78281 15.2667 0.484656L15.1973 0.475323C14.3248 0.322251 13.4389 0.234821 12.5493 0.213989H12.4933C11.5628 0.228571 10.6359 0.320766 9.72534 0.489323L9.82133 0.475323C8.02262 0.767458 6.33006 1.43236 4.88531 2.41437C3.44057 3.39638 2.28569 4.66693 1.51734 6.11966L1.488 6.18266C0.720258 8.43993 0.515642 10.8152 0.888003 13.1477L0.877336 13.0613C0.671283 13.0808 0.480674 13.1661 0.341946 13.3008C0.203217 13.4356 0.1261 13.6103 0.125336 13.7917V13.808L0.530669 18.3137C0.568002 18.8317 0.973335 19.1443 1.41067 19.1023L1.41334 19.0953Z" fill="white"/>
</svg>
